<svg width="1440" height="271" viewBox="0 0 1440 271" fill="none" xmlns="http://www.w3.org/2000/svg">
<g opacity="0.35">
<path d="M158.88 130.981C166.177 137.482 171.158 145.446 176.553 153.504C178.551 156.449 180.552 159.392 182.553 162.335C188.131 170.549 188.131 170.549 190.466 173.994C192.309 176.698 194.183 179.381 196.058 182.062C197.056 183.507 198.054 184.952 199.082 186.44C203.35 191.094 206.967 191.114 213.045 191.799C218.581 193.358 220.085 195.272 223.504 199.83C224.551 201.201 225.596 202.572 226.673 203.986C227.737 205.427 228.801 206.871 229.898 208.357C230.981 209.786 232.063 211.216 233.181 212.688C244.947 228.268 244.947 228.268 245.718 233.574C245.092 237.885 245.092 237.885 242.364 240.686C220.363 254.249 220.363 254.249 210.607 256.851C205.05 255.422 202.613 254.356 199.423 249.508C198.748 247.92 198.07 246.33 197.372 244.694C196.622 242.956 195.871 241.216 195.099 239.424C194.349 237.6 193.599 235.776 192.826 233.898C191.651 231.191 191.651 231.191 190.452 228.432C183.886 212.924 183.886 212.924 184.743 205.124C185.881 203.986 187.019 202.848 188.192 201.675C187.686 192.79 184.19 185.788 180.264 177.995C179.655 176.753 179.045 175.513 178.415 174.236C176.479 170.301 174.524 166.375 172.567 162.449C170.604 158.497 168.647 154.545 166.697 150.588C165.485 148.132 164.268 145.679 163.042 143.23C158.88 134.814 158.88 134.814 158.88 130.981Z" fill="url(#paint0_linear_65_2)"/>
<path d="M701.931 92.1311C712.854 100.287 717.508 108.47 720.42 121.874C721.448 132.161 720.5 144.022 715.813 153.395C711.558 151.411 708.834 149.864 705.468 146.498C705.32 140.781 705.476 135.166 705.754 129.457C705.978 121.145 704.837 115.815 700.295 108.565C690.724 99.4987 681.763 97.4038 668.895 97.6814C658.801 98.8125 652.451 102.459 646.088 110.289C640.759 120.522 639.414 132.416 642.911 143.548C646.347 150.952 650.201 155.814 657.189 160.292C664.605 162.765 672.064 161.844 679.789 161.344C683.423 161.235 683.423 161.235 689.95 162.016C694.267 166.355 694.267 166.355 696.847 170.638C681.859 177.298 668.321 177.816 652.689 172.531C641.531 167.408 633.369 159.108 628.948 147.631C625.575 133.206 626.225 118.295 633.05 105.116C647.878 83.6978 679.804 78.7423 701.931 92.1311Z" fill="url(#paint1_linear_65_2)"/>
<path d="M183.019 108.566C184.726 109.135 186.433 109.704 188.192 110.29C186.485 110.29 184.778 110.29 183.019 110.29C183.019 109.721 183.019 109.152 183.019 108.566ZM188.192 112.014C203.243 116.32 216.39 123.7 229.925 131.428C245.954 140.604 245.954 140.604 263.841 140.137C271.054 139.085 276.837 143.199 283.025 146.499C285.113 147.479 287.207 148.448 289.303 149.41C291.521 150.45 293.74 151.491 295.957 152.534C297.033 153.024 298.109 153.514 299.219 154.019C306.654 157.633 306.654 157.633 308.963 161.869C308.804 169.564 303.961 176.158 300.268 182.708C299.65 183.817 299.031 184.926 298.395 186.069C296.167 189.748 294.252 192.571 290.434 194.664C283.994 194.851 279.842 190.769 274.942 187.019C273.878 186.224 272.814 185.429 271.719 184.609C269.58 183.007 267.447 181.395 265.319 179.774C262.717 177.822 260.045 175.963 257.363 174.122C255.98 173.149 254.599 172.178 253.175 171.177C251.972 170.352 250.77 169.528 249.53 168.678C246.816 165.466 246.816 165.466 246.149 159.526C245.685 153.195 245.685 153.195 241.05 149.551C239.255 148.437 237.459 147.323 235.609 146.175C233.581 144.875 231.557 143.57 229.534 142.263C228.437 141.57 227.343 140.878 226.215 140.164C219.659 135.928 213.314 131.391 206.943 126.886C205.677 126.003 204.412 125.12 203.107 124.21C201.915 123.374 200.722 122.536 199.494 121.674C197.906 120.561 197.906 120.561 196.287 119.427C193.325 117.156 190.768 114.709 188.192 112.014Z" fill="url(#paint2_linear_65_2)"/>
<path d="M124.394 137.879C124.963 137.879 125.532 137.879 126.119 137.879C126.267 140.055 126.413 142.231 126.567 144.473C127.115 152.525 127.672 160.577 128.234 168.63C128.476 172.119 128.715 175.608 128.952 179.097C129.291 184.105 129.64 189.112 129.991 194.119C130.096 195.686 130.2 197.252 130.307 198.866C130.41 200.316 130.514 201.764 130.621 203.258C130.709 204.537 130.797 205.816 130.888 207.134C131.134 210.46 131.134 210.46 133.016 213.746C134.431 214.481 135.849 215.213 137.307 215.97C141.637 218.919 141.637 218.919 143.118 223.167C143.301 224.819 143.483 226.471 143.671 228.173C143.884 229.985 144.097 231.796 144.318 233.663C144.499 235.554 144.682 237.446 144.87 239.394C145.203 242.212 145.203 242.212 145.544 245.086C147.265 260.708 147.265 260.708 145.085 268.922C144.516 269.491 143.947 270.06 143.361 270.646C138.306 270.579 133.317 270.394 128.274 270.108C126.174 270.015 126.174 270.015 124.031 269.922C116.594 269.517 110.488 268.851 103.703 265.473C103.317 253.928 103.609 242.477 104.781 230.989C104.981 228.854 105.181 226.721 105.388 224.523C107.152 218.919 107.152 218.919 112.278 216.176C117.927 211.68 118.296 211.108 119.304 204.433C119.592 201.337 119.825 198.233 120.017 195.129C120.223 192.676 120.223 192.676 120.436 190.172C120.867 184.956 121.23 179.741 121.592 174.52C121.874 170.978 122.158 167.438 122.448 163.898C123.148 155.229 123.787 146.556 124.394 137.879Z" fill="url(#paint3_linear_65_2)"/>
<path d="M1128.45 108.028C1130.58 107.978 1132.71 107.928 1134.91 107.876C1136.97 107.862 1139.03 107.846 1141.14 107.833C1143.97 107.795 1143.97 107.795 1146.85 107.757C1153.32 108.764 1156.2 110.736 1160.67 115.462C1160.67 117.738 1160.67 120.014 1160.67 122.359C1157.83 122.359 1154.98 122.359 1152.05 122.359C1152.05 121.223 1152.05 120.085 1152.05 118.911C1136.69 118.911 1121.32 118.911 1105.5 118.911C1105.5 124.603 1105.5 130.291 1105.5 136.153C1107.54 136.1 1107.54 136.1 1109.63 136.045C1115.83 135.902 1122.03 135.812 1128.23 135.722C1130.38 135.665 1132.53 135.607 1134.74 135.548C1137.85 135.515 1137.85 135.515 1141.02 135.481C1143.88 135.426 1143.88 135.426 1146.8 135.371C1153.24 136.333 1156.04 138.557 1160.67 143.05C1162.73 147.173 1162.86 150.09 1163.04 154.689C1163.12 156.139 1163.21 157.587 1163.3 159.081C1162.29 164.259 1160.81 168.076 1157.23 172.019C1148.92 176.989 1138.13 175.47 1128.77 175.273C1125.36 175.311 1125.36 175.311 1121.88 175.351C1105.19 175.206 1105.19 175.206 1098.74 170.133C1095.15 165.466 1095.15 165.466 1095.15 158.569C1098.56 158.569 1101.98 158.569 1105.5 158.569C1106.06 160.277 1106.63 161.983 1107.22 163.741C1121.44 163.741 1135.67 163.741 1150.33 163.741C1150.33 158.622 1150.33 153.501 1150.33 148.223C1148.35 148.199 1148.35 148.199 1146.35 148.175C1140.38 148.082 1134.41 147.939 1128.45 147.792C1126.38 147.768 1124.32 147.744 1122.19 147.72C1119.2 147.635 1119.2 147.635 1116.14 147.551C1113.39 147.495 1113.39 147.495 1110.59 147.44C1104.34 146.287 1101.42 143.959 1096.87 139.602C1093.49 132.831 1094.33 124.572 1095.15 117.187C1103.42 105.614 1115.49 108.128 1128.45 108.028Z" fill="url(#paint4_linear_65_2)"/>
<path d="M801.056 85.6126C802.897 85.604 802.897 85.604 804.777 85.5954C813.534 85.6833 821.19 87.2162 829.613 89.5991C829.613 93.5838 829.613 97.5668 829.613 101.669C828.108 101.296 828.108 101.296 826.57 100.915C811.3 97.4582 794.812 94.6597 780.682 102.915C774.637 107.678 771.651 113.48 769.264 120.635C768.011 137.042 768.011 137.042 774.437 151.672C782.917 160.152 789.51 162.278 801.38 162.341C811.357 162.29 820.017 161.217 829.613 158.569C829.613 161.983 829.613 165.399 829.613 168.914C815.481 176.475 798.375 177.889 782.924 173.603C772.732 169.792 764.835 162.412 758.919 153.396C753.268 139.768 752.691 122.272 758.165 108.459C767.095 91.763 782.905 85.204 801.056 85.6126Z" fill="url(#paint5_linear_65_2)"/>
<path d="M89.9089 143.052C92.2212 149.99 90.2917 152.142 87.2157 158.684C86.257 160.789 85.3 162.893 84.3448 165C82.8292 168.293 81.3015 171.583 79.7463 174.861C74.0976 186.848 69.775 196.343 72.251 209.744C73.0234 217.174 70.0836 223.474 67.2782 230.233C66.7679 231.623 66.2558 233.011 65.7299 234.44C61.8745 244.118 61.8745 244.118 56.4345 246.944C50.3669 246.348 47.6081 244.113 42.9233 240.256C41.4215 239.059 39.9179 237.864 38.3696 236.632C34.1055 232.037 32.821 230.367 33.0089 224.091C35.1142 219.041 37.9196 214.566 40.8749 209.973C41.6198 208.726 42.3629 207.478 43.1285 206.192C43.8803 204.997 44.6338 203.802 45.4079 202.573C46.0873 201.49 46.7666 200.407 47.4667 199.29C50.2513 196.503 50.2513 196.503 55.3448 194.967C62.0003 192.543 63.3021 190.084 66.7058 183.968C68.2542 181.244 68.2542 181.244 69.8336 178.463C70.875 176.557 71.9165 174.65 72.9907 172.688C74.0511 170.802 75.1132 168.915 76.2064 166.972C78.1841 163.455 80.1497 159.93 82.0964 156.396C84.6138 151.89 87.2295 147.462 89.9089 143.052Z" fill="url(#paint6_linear_65_2)"/>
<path d="M529.594 87.8745C534.146 87.8745 538.698 87.8745 543.388 87.8745C543.388 112.342 543.388 136.809 543.388 162.017C561.596 162.017 579.804 162.017 598.564 162.017C598.564 165.431 598.564 168.845 598.564 172.362C575.804 172.362 553.044 172.362 529.594 172.362C529.594 144.481 529.594 116.6 529.594 87.8745Z" fill="url(#paint7_linear_65_2)"/>
<path d="M986.522 108.566C989.936 108.566 993.35 108.566 996.867 108.566C997.436 126.774 998.005 144.982 998.591 163.742C1005.67 163.778 1012.75 163.812 1020.04 163.849C1022.27 163.866 1024.51 163.881 1026.81 163.897C1028.56 163.902 1030.3 163.906 1032.1 163.911C1034.8 163.924 1034.8 163.924 1037.55 163.938C1041.61 164.212 1041.61 164.212 1043.42 162.017C1043.7 158.069 1043.85 154.114 1043.97 150.156C1044 148.972 1044.04 147.789 1044.08 146.568C1044.19 142.773 1044.29 138.98 1044.39 135.185C1044.47 132.617 1044.54 130.05 1044.62 127.483C1044.8 121.177 1044.98 114.871 1045.15 108.566C1047.99 108.566 1050.84 108.566 1053.77 108.566C1053.89 116.542 1053.99 124.52 1054.05 132.497C1054.08 135.211 1054.11 137.923 1054.16 140.635C1054.22 144.539 1054.25 148.441 1054.27 152.346C1054.3 153.555 1054.33 154.764 1054.35 156.008C1054.36 161.309 1054.05 164.945 1051.47 169.627C1043.55 177.156 1029.55 174.549 1019.39 174.625C1017.17 174.677 1014.95 174.727 1012.66 174.777C1010.52 174.792 1008.39 174.806 1006.2 174.822C1004.24 174.846 1002.29 174.872 1000.28 174.898C994.006 173.908 992.067 172.159 988.246 167.19C986.213 161.09 986.327 156.257 986.353 149.82C986.356 148.641 986.358 147.461 986.361 146.248C986.37 142.487 986.392 138.728 986.415 134.968C986.423 132.417 986.43 129.866 986.437 127.314C986.456 121.065 986.485 114.815 986.522 108.566Z" fill="url(#paint8_linear_65_2)"/>
<path d="M270.956 84.4259C285.831 84.0689 299.571 84.0551 314.062 87.8743C314.693 90.8521 315.298 93.8351 315.893 96.8197C316.234 98.4784 316.574 100.139 316.924 101.849C317.517 106.903 317.065 110.571 315.786 115.462C306.337 115.798 297.938 114.66 288.736 112.552C287.451 112.297 286.165 112.04 284.841 111.774C283.594 111.491 282.349 111.209 281.065 110.915C279.392 110.55 279.392 110.55 277.687 110.177C274.404 108.565 274.404 108.565 271.43 104.325C266.145 98.4233 260.75 97.706 253.255 96.4611C251.887 96.2059 250.52 95.9507 249.109 95.6869C244.759 94.8817 240.4 94.1247 236.04 93.3712C233.081 92.8316 230.12 92.2884 227.163 91.7436C219.927 90.4176 212.683 89.1348 205.434 87.8743C205.434 87.3053 205.434 86.7363 205.434 86.1501C215.8 85.9846 226.036 86.0329 236.364 87.0122C247.332 88.0433 258.224 88.0347 269.231 87.8743C269.8 86.7363 270.369 85.5983 270.956 84.4259Z" fill="url(#paint9_linear_65_2)"/>
<path d="M905.257 87.3525C933.716 86.7473 933.716 86.7476 945.139 94.7705C949.503 99.8155 950.234 102.678 950.958 109.319C950.265 115.911 948.467 120.124 945.139 125.807H941.691V129.255C942.722 129.61 943.753 129.966 944.815 130.333C950.203 133.719 951.531 137.142 953.76 143.049C954.72 152.008 953.848 158.067 948.587 165.464C939.357 171.852 930.869 173.339 919.868 173.035C917.83 173.02 917.83 173.02 915.752 173.005C911.464 172.967 907.181 172.88 902.895 172.792C899.967 172.758 897.039 172.727 894.112 172.697C886.98 172.628 879.854 172.494 872.721 172.361V124.082C876.604 124.018 880.486 123.953 884.487 123.888C888.264 123.807 892.043 123.719 895.82 123.631C898.438 123.572 901.055 123.524 903.672 123.486C907.443 123.428 911.215 123.338 914.986 123.241C917.251 123.196 919.518 123.15 921.853 123.104C928.189 122.322 931.598 121.224 936.518 117.186C937.523 111.078 937.523 111.078 936.518 105.116C930.119 98.7175 922.529 99.6485 913.806 99.3984C912.63 99.3622 911.452 99.3262 910.24 99.29C906.499 99.1762 902.756 99.0736 899.015 98.9736C896.472 98.8978 893.927 98.8239 891.384 98.748C885.163 98.5636 878.942 98.3877 872.721 98.2188V87.873C880.818 87.7006 888.913 87.5769 897.01 87.4941C899.758 87.4597 902.509 87.4129 905.257 87.3525ZM937.932 138.452C931.612 133.435 931.612 133.435 913.887 133.675C911.689 133.749 909.554 133.821 907.421 133.894C899.874 134.028 892.336 134.199 884.79 134.432V162.02C890.137 162.185 895.486 162.338 900.834 162.439C903.074 162.479 905.247 162.52 907.421 162.558C916.599 162.87 926.605 164.259 935.104 160.243C939.675 156.615 941.566 153.898 942.984 148.226C941.69 143.053 941.691 143.052 937.932 138.452Z" fill="url(#paint10_linear_65_2)"/>
<path d="M441.433 87.3525C469.891 86.7473 469.891 86.7476 481.315 94.7705C485.679 99.8155 486.41 102.678 487.134 109.319C486.441 115.911 484.642 120.124 481.315 125.807H477.866V129.255C478.897 129.61 479.928 129.966 480.99 130.333C486.378 133.719 487.706 137.142 489.936 143.049C490.896 152.008 490.023 158.067 484.763 165.464C475.533 171.852 467.045 173.339 456.044 173.035C454.006 173.02 454.006 173.02 451.928 173.005C447.64 172.967 443.357 172.88 439.07 172.792C436.143 172.758 433.215 172.727 430.287 172.697C423.156 172.628 416.03 172.494 408.897 172.361V124.082C412.779 124.018 416.662 123.953 420.662 123.888C424.44 123.807 428.218 123.719 431.996 123.631C434.613 123.572 437.231 123.524 439.848 123.486C443.619 123.428 447.39 123.338 451.161 123.241C453.427 123.196 455.694 123.15 458.028 123.104C464.365 122.322 467.774 121.224 472.693 117.186C473.699 111.078 473.699 111.078 472.693 105.116C466.295 98.7175 458.705 99.6485 449.982 99.3984C448.806 99.3622 447.628 99.3262 446.416 99.29C442.675 99.1762 438.933 99.0736 435.192 98.9736C432.648 98.8978 430.103 98.8239 427.56 98.748C421.339 98.5636 415.118 98.3877 408.897 98.2188V87.873C416.994 87.7006 425.089 87.5769 433.186 87.4941C435.934 87.4597 438.684 87.4129 441.433 87.3525ZM469.055 134.954C465.86 133.461 461.943 133.514 450.063 133.675C448.095 133.741 446.18 133.805 444.27 133.87L443.597 133.894C436.05 134.028 428.511 134.199 420.966 134.432V162.02C426.313 162.185 431.661 162.338 437.01 162.439L439.718 162.488C441.02 162.512 442.308 162.534 443.597 162.557C445.089 162.607 446.604 162.687 448.13 162.767C455.989 163.178 464.163 163.606 471.279 160.243C475.85 156.615 477.742 153.898 479.159 148.226C478.546 145.773 478.224 144.482 477.653 143.313C477.021 142.018 476.084 140.871 474.108 138.452C472.024 136.798 470.626 135.689 469.055 134.954Z" fill="url(#paint11_linear_65_2)"/>
<path d="M1203.78 87.8745C1207.19 87.8745 1210.61 87.8745 1214.12 87.8745C1214.12 94.7025 1214.12 101.531 1214.12 108.565C1223.23 108.565 1232.33 108.565 1241.71 108.565C1241.71 111.979 1241.71 115.393 1241.71 118.911C1232.61 118.911 1223.5 118.911 1214.12 118.911C1214.69 133.705 1215.26 148.499 1215.85 163.741C1224.38 164.31 1232.92 164.879 1241.71 165.465C1241.71 168.31 1241.71 171.155 1241.71 174.087C1236.97 174.273 1232.23 174.409 1227.49 174.518C1225.48 174.604 1225.48 174.604 1223.42 174.694C1213.45 174.863 1213.45 174.863 1208.12 170.935C1204.3 165.464 1203.56 161.119 1203.58 154.623C1203.58 153.139 1203.58 151.656 1203.58 150.127C1203.59 148.532 1203.6 146.937 1203.61 145.294C1203.61 143.656 1203.61 142.016 1203.62 140.328C1203.63 135.093 1203.65 129.858 1203.67 124.622C1203.68 121.075 1203.69 117.526 1203.69 113.978C1203.71 105.276 1203.74 96.575 1203.78 87.8745Z" fill="url(#paint12_linear_65_2)"/>
<path d="M1407.17 107.724C1409.08 107.751 1411 107.779 1412.97 107.808C1414.96 107.881 1416.94 107.953 1418.98 108.027C1421 108.065 1423.02 108.105 1425.1 108.145C1430.07 108.246 1435.03 108.388 1440 108.565C1440 111.979 1440 115.393 1440 118.911C1426.34 118.911 1412.69 118.911 1398.62 118.911C1398.62 137.119 1398.62 155.327 1398.62 174.087C1395.2 174.087 1391.79 174.087 1388.27 174.087C1388.06 166.141 1387.9 158.198 1387.8 150.251C1387.76 147.549 1387.7 144.849 1387.62 142.148C1387.52 138.257 1387.47 134.369 1387.43 130.475C1387.39 129.275 1387.34 128.075 1387.3 126.839C1387.29 120.376 1388.15 117.362 1391.99 112.098C1397.67 108.007 1400.25 107.546 1407.17 107.724Z" fill="url(#paint13_linear_65_2)"/>
<path d="M67.4937 127.532C68.6317 128.101 69.7697 128.67 70.9421 129.256C69.4162 130.701 69.4162 130.701 67.8592 132.176C63.2193 136.598 58.6207 141.062 54.0239 145.53C52.422 147.044 50.8202 148.558 49.1701 150.12C40.8127 158.296 35.1192 164.54 32.2501 175.968C30.8259 180.82 28.0964 183.474 24.3876 186.803C23.2133 187.882 22.0409 188.964 20.8322 190.076C19.7286 191.059 18.6269 192.041 17.4906 193.053C15.7543 194.766 14.0266 196.486 12.3178 198.226C6.16747 192.916 4.09493 187.474 3.05003 179.496C3.69663 174.087 3.69662 174.087 7.54169 169.681C9.22455 168.362 10.9074 167.042 12.642 165.681C14.3007 164.334 15.9612 162.988 17.6716 161.6C22.6633 158.569 22.6633 158.569 26.798 158.791C34.3623 158.417 38.7315 152.87 44.1095 147.899C46.332 145.899 48.558 143.899 50.784 141.899C51.8479 140.931 52.9117 139.964 54.0083 138.966C58.4034 135.029 62.933 131.276 67.4937 127.532Z" fill="url(#paint14_linear_65_2)"/>
<path d="M284.75 37.871C289.426 42.6299 293.178 47.8113 296.819 53.3892C296.25 54.5272 295.681 55.6652 295.095 56.8377C290.243 57.7567 285.55 58.4498 280.654 58.993C279.308 59.1706 277.961 59.3482 276.573 59.5309C266.424 60.7138 266.424 60.7138 260.61 56.8377C255.613 56.7377 255.613 56.7377 249.94 57.3756C247.814 57.5636 245.687 57.7498 243.495 57.9429C241.797 58.0981 241.797 58.0981 240.062 58.255C233.772 58.793 227.47 59.1551 221.168 59.5309C218.802 59.6775 216.435 59.8241 214.069 59.9689C211.502 60.1258 211.502 60.1258 208.883 60.2862C213.55 57.7808 217.833 56.1394 223.001 54.9927C224.348 54.6927 225.694 54.3927 227.082 54.0823C228.474 53.7823 229.865 53.4823 231.298 53.1737C232.689 52.8598 234.081 52.546 235.514 52.2236C241.857 50.8321 247.154 49.9407 253.713 49.9407C253.713 47.6647 253.713 45.3887 253.713 43.0437C276.789 36.033 276.789 36.033 284.75 37.871ZM201.986 60.2862C208.883 62.0104 208.883 62.0104 208.883 62.0104L201.986 60.2862Z" fill="url(#paint15_linear_65_2)"/>
<path d="M1284.23 111.476C1293.85 106.614 1303.64 107.54 1314.24 107.812C1316.44 107.822 1318.65 107.833 1320.92 107.843C1339.33 108.085 1339.33 108.085 1345.17 112.016C1348.67 117.268 1349.04 118.225 1348.95 124.104C1348.94 125.282 1348.93 126.459 1348.93 127.671C1348.89 129.156 1348.86 130.639 1348.83 132.167C1348.76 136.896 1348.69 141.626 1348.61 146.5H1291.72C1292.28 152.19 1292.85 157.879 1293.44 163.743C1320.75 164.596 1320.75 164.597 1348.61 165.467V174.088C1340.42 174.344 1332.23 174.532 1324.04 174.656C1321.26 174.707 1318.47 174.778 1315.69 174.868C1311.68 174.994 1307.67 175.052 1303.66 175.097C1302.42 175.151 1301.18 175.204 1299.91 175.259C1292.83 175.264 1290.23 174.302 1284.9 169.533C1281.09 163.289 1280.26 160.074 1280.22 152.851C1280.21 150.823 1280.2 148.795 1280.19 146.706C1280.22 144.611 1280.26 142.516 1280.29 140.357C1280.26 138.255 1280.22 136.154 1280.19 133.99C1280.24 125.541 1280.42 119.085 1284.23 111.476ZM1291.71 118.911V136.154H1338.27V118.911H1291.71Z" fill="url(#paint16_linear_65_2)"/>
<path d="M684.777 141.326C690.396 143.785 694.091 146.787 698.383 151.146C700.216 152.996 700.216 152.996 702.087 154.884C703.973 156.815 703.973 156.815 705.899 158.784C707.183 160.084 708.468 161.384 709.792 162.724C712.956 165.929 716.113 169.142 719.262 172.363C716.651 178.889 715.789 179.272 708.916 182.708C698.674 172.466 688.432 162.224 677.88 151.672C681.328 144.775 681.328 144.775 684.777 141.326Z" fill="url(#paint17_linear_65_2)"/>
<path d="M55.424 108.566C58.8725 110.29 58.8725 110.29 58.8725 110.29L55.424 108.566ZM51.9755 110.29C55.424 112.014 55.424 112.014 55.424 112.014L51.9755 110.29ZM51.9755 113.739C51.1048 114.225 50.2357 114.711 49.3391 115.211C45.3941 117.432 41.4645 119.68 37.535 121.929C36.1659 122.693 34.7969 123.458 33.3864 124.246C32.0743 125.001 30.7639 125.757 29.4121 126.536C28.2016 127.222 26.9929 127.908 25.7463 128.615C22.172 131.359 21.0702 133.833 19.2149 137.878C15.6043 140.437 15.6043 140.437 11.4558 142.62C10.0867 143.358 8.71768 144.096 7.30725 144.856C3.69669 146.499 3.69669 146.499 0.248198 146.499C-0.286318 130.483 -0.286318 130.483 3.69669 125.808C10.2281 122.222 13.9128 120.565 21.3702 120.851C29.6793 120.574 35.2624 117.499 42.5732 113.732C46.8028 112.014 46.8028 112.014 51.9755 113.739Z" fill="url(#paint18_linear_65_2)"/>
<path d="M245.092 12.0075C249.384 14.0231 253.149 16.337 257.162 18.9044C249.921 24.8048 244.269 27.3584 234.853 27.9567C224.746 28.8102 216.118 33.3191 207.057 37.5608C205.384 38.2332 203.71 38.9039 201.986 39.5954C200.848 39.0264 199.71 38.4574 198.537 37.8711C206.503 33.3191 214.469 28.7671 222.677 24.0772C222.677 22.3702 222.677 20.6632 222.677 18.9044C235.859 10.4677 235.859 10.4677 245.092 12.0075ZM195.089 39.5954C198.537 41.3196 198.537 41.3196 198.537 41.3196L195.089 39.5954Z" fill="url(#paint19_linear_65_2)"/>
<path d="M31.2846 86.1519C31.2846 87.2899 31.2846 88.4279 31.2846 89.6003C42.3801 88.7468 42.3801 88.7468 53.6997 87.8761C47.5752 90.9384 43.4957 92.1626 36.8884 93.2644C35.19 93.554 33.4916 93.842 31.7432 94.1403C30.4535 94.3489 29.1637 94.5575 27.8361 94.7731C27.2671 96.4801 26.6981 98.1871 26.1118 99.9458C22.5496 101.205 22.5496 101.205 18.2458 101.994C16.8199 102.267 15.3957 102.541 13.9283 102.822C12.8283 103.012 11.7265 103.199 10.5936 103.394C13.6111 91.7556 13.6111 91.7556 17.4906 87.8761C22.4495 86.2225 25.8894 86.1519 31.2846 86.1519Z" fill="url(#paint20_linear_65_2)"/>
<path d="M684.777 141.326C690.396 143.785 694.091 146.787 698.383 151.146C700.216 152.996 700.216 152.996 702.087 154.884C703.973 156.815 703.973 156.815 705.899 158.784C707.183 160.084 708.468 161.384 709.792 162.724C712.956 165.929 716.113 169.142 719.262 172.363C716.651 178.889 715.789 179.272 708.916 182.708C698.674 172.466 688.432 162.224 677.88 151.672C681.328 144.775 681.328 144.775 684.777 141.326ZM684.777 144.775C683.639 147.051 682.501 149.327 681.328 151.672C690.432 160.776 699.536 169.88 708.916 179.26C711.192 178.122 713.468 176.984 715.813 175.811C713.484 170.621 710.877 166.983 706.868 162.96C705.806 161.893 704.744 160.826 703.649 159.727C702.542 158.634 701.435 157.539 700.295 156.413C699.188 155.293 698.081 154.174 696.941 153.018C695.347 151.432 695.347 151.432 693.722 149.813C692.75 148.846 691.779 147.878 690.777 146.882C688.334 144.409 688.334 144.409 684.777 144.775Z" fill="url(#paint21_linear_65_2)"/>
<path d="M212.331 1.66196C210.602 6.17431 209.483 8.20547 205.258 10.6936C203.105 11.6109 203.105 11.6109 200.908 12.5454C191.806 16.7801 185.018 22.2994 177.846 29.2499C177.846 24.0771 177.846 24.0771 180.048 21.6115C181.466 20.3786 181.466 20.3786 182.912 19.1199C187.792 14.5352 188.838 11.7522 189.916 5.11045C195.922 -2.39691 203.874 0.161872 212.331 1.66196Z" fill="url(#paint22_linear_65_2)"/>
<path d="M183.019 108.566C184.726 109.135 186.433 109.704 188.192 110.29C186.485 110.29 184.778 110.29 183.019 110.29C183.019 109.721 183.019 109.152 183.019 108.566ZM188.192 112.014C196.839 114.671 204.77 117.237 212.331 122.36C208.917 124.067 208.917 124.067 205.434 125.808C202.557 123.839 199.684 121.862 196.813 119.88C195.213 118.78 193.613 117.68 191.964 116.547C190.72 115.62 189.475 114.694 188.192 113.739C188.192 113.17 188.192 112.601 188.192 112.014ZM210.607 127.533C212.314 128.102 214.021 128.671 215.78 129.257C214.073 129.257 212.366 129.257 210.607 129.257C210.607 128.688 210.607 128.119 210.607 127.533ZM215.78 130.981C224.185 133.999 224.185 133.999 226.125 137.878C217.72 134.861 217.72 134.861 215.78 130.981ZM226.125 137.878C227.832 138.447 229.539 139.016 231.298 139.602C229.591 139.602 227.884 139.602 226.125 139.602C226.125 139.033 226.125 138.464 226.125 137.878Z" fill="url(#paint23_linear_65_2)"/>
<path d="M38.1815 58.5615C41.5955 58.5615 45.0095 58.5615 48.527 58.5615C48.527 60.8375 48.527 63.1135 48.527 65.4585C44.5405 67.3983 44.5405 67.3983 39.9057 68.907C38.1987 67.769 36.4917 66.631 34.733 65.4585C35.871 63.1825 37.009 60.9065 38.1815 58.5615Z" fill="url(#paint24_linear_65_2)"/>
<path d="M169.225 1.66284C167.501 6.83557 167.501 6.83557 164.159 8.66672C162.987 9.20123 161.812 9.73402 160.604 10.2841C159.466 11.4221 158.328 12.5601 157.155 13.7325C156.586 9.74954 156.017 5.76654 155.431 1.66284C165.345 -0.276936 165.345 -0.276936 169.225 1.66284Z" fill="url(#paint25_linear_65_2)"/>
<path d="M124.394 8.55957C126.955 10.2666 126.955 10.2666 129.567 12.0081C127.291 12.0081 125.015 12.0081 122.67 12.0081C123.239 10.8701 123.808 9.73206 124.394 8.55957Z" fill="url(#paint26_linear_65_2)"/>
</g>
<defs>
<linearGradient id="paint0_linear_65_2" x1="203.017" y1="-134.383" x2="210.824" y2="523.137" gradientUnits="userSpaceOnUse">
<stop stop-color="white"/>
<stop offset="1" stop-color="#101010"/>
</linearGradient>
<linearGradient id="paint1_linear_65_2" x1="674.655" y1="-107.989" x2="678.465" y2="369.512" gradientUnits="userSpaceOnUse">
<stop stop-color="white"/>
<stop offset="1" stop-color="#101010"/>
</linearGradient>
<linearGradient id="paint2_linear_65_2" x1="247.033" y1="-72.9635" x2="249.552" y2="376.879" gradientUnits="userSpaceOnUse">
<stop stop-color="white"/>
<stop offset="1" stop-color="#101010"/>
</linearGradient>
<linearGradient id="paint3_linear_65_2" x1="125.52" y1="-142.025" x2="142.955" y2="551.182" gradientUnits="userSpaceOnUse">
<stop stop-color="white"/>
<stop offset="1" stop-color="#101010"/>
</linearGradient>
<linearGradient id="paint4_linear_65_2" x1="1129.43" y1="-35.3656" x2="1132.29" y2="319.29" gradientUnits="userSpaceOnUse">
<stop stop-color="white"/>
<stop offset="1" stop-color="#101010"/>
</linearGradient>
<linearGradient id="paint5_linear_65_2" x1="792.607" y1="-104.995" x2="797.254" y2="367.269" gradientUnits="userSpaceOnUse">
<stop stop-color="white"/>
<stop offset="1" stop-color="#101010"/>
</linearGradient>
<linearGradient id="paint6_linear_65_2" x1="62.4393" y1="-75.9793" x2="70.4103" y2="466.695" gradientUnits="userSpaceOnUse">
<stop stop-color="white"/>
<stop offset="1" stop-color="#101010"/>
</linearGradient>
<linearGradient id="paint7_linear_65_2" x1="564.65" y1="-90.2468" x2="569.078" y2="351.12" gradientUnits="userSpaceOnUse">
<stop stop-color="white"/>
<stop offset="1" stop-color="#101010"/>
</linearGradient>
<linearGradient id="paint8_linear_65_2" x1="1020.91" y1="-31.4967" x2="1023.69" y2="315.577" gradientUnits="userSpaceOnUse">
<stop stop-color="white"/>
<stop offset="1" stop-color="#101010"/>
</linearGradient>
<linearGradient id="paint9_linear_65_2" x1="262.232" y1="18.406" x2="262.606" y2="181.642" gradientUnits="userSpaceOnUse">
<stop stop-color="white"/>
<stop offset="1" stop-color="#101010"/>
</linearGradient>
<linearGradient id="paint10_linear_65_2" x1="914.084" y1="-94.0883" x2="917.969" y2="354.94" gradientUnits="userSpaceOnUse">
<stop stop-color="white"/>
<stop offset="1" stop-color="#101010"/>
</linearGradient>
<linearGradient id="paint11_linear_65_2" x1="450.26" y1="-94.0883" x2="454.144" y2="354.94" gradientUnits="userSpaceOnUse">
<stop stop-color="white"/>
<stop offset="1" stop-color="#101010"/>
</linearGradient>
<linearGradient id="paint12_linear_65_2" x1="1222.96" y1="-95.2733" x2="1231.43" y2="358.436" gradientUnits="userSpaceOnUse">
<stop stop-color="white"/>
<stop offset="1" stop-color="#101010"/>
</linearGradient>
<linearGradient id="paint13_linear_65_2" x1="1414.08" y1="-32.2828" x2="1417.66" y2="314.56" gradientUnits="userSpaceOnUse">
<stop stop-color="white"/>
<stop offset="1" stop-color="#101010"/>
</linearGradient>
<linearGradient id="paint14_linear_65_2" x1="37.5577" y1="-21.508" x2="40.7077" y2="347.809" gradientUnits="userSpaceOnUse">
<stop stop-color="white"/>
<stop offset="1" stop-color="#101010"/>
</linearGradient>
<linearGradient id="paint15_linear_65_2" x1="250.187" y1="-16.235" x2="250.473" y2="115.284" gradientUnits="userSpaceOnUse">
<stop stop-color="white"/>
<stop offset="1" stop-color="#101010"/>
</linearGradient>
<linearGradient id="paint16_linear_65_2" x1="1315.15" y1="-35.1656" x2="1318" y2="318.507" gradientUnits="userSpaceOnUse">
<stop stop-color="white"/>
<stop offset="1" stop-color="#101010"/>
</linearGradient>
<linearGradient id="paint17_linear_65_2" x1="698.913" y1="54.0831" x2="700.684" y2="270.27" gradientUnits="userSpaceOnUse">
<stop stop-color="white"/>
<stop offset="1" stop-color="#101010"/>
</linearGradient>
<linearGradient id="paint18_linear_65_2" x1="29.9232" y1="28.5931" x2="30.9692" y2="226.772" gradientUnits="userSpaceOnUse">
<stop stop-color="white"/>
<stop offset="1" stop-color="#101010"/>
</linearGradient>
<linearGradient id="paint19_linear_65_2" x1="226.639" y1="-52.226" x2="227.263" y2="105.009" gradientUnits="userSpaceOnUse">
<stop stop-color="white"/>
<stop offset="1" stop-color="#101010"/>
</linearGradient>
<linearGradient id="paint20_linear_65_2" x1="32.5033" y1="49.8006" x2="32.7984" y2="139.884" gradientUnits="userSpaceOnUse">
<stop stop-color="white"/>
<stop offset="1" stop-color="#101010"/>
</linearGradient>
<linearGradient id="paint21_linear_65_2" x1="698.913" y1="54.0831" x2="700.684" y2="270.27" gradientUnits="userSpaceOnUse">
<stop stop-color="white"/>
<stop offset="1" stop-color="#101010"/>
</linearGradient>
<linearGradient id="paint22_linear_65_2" x1="195.374" y1="-61.6659" x2="196.436" y2="91.144" gradientUnits="userSpaceOnUse">
<stop stop-color="white"/>
<stop offset="1" stop-color="#101010"/>
</linearGradient>
<linearGradient id="paint23_linear_65_2" x1="207.558" y1="43.1336" x2="208.412" y2="205.28" gradientUnits="userSpaceOnUse">
<stop stop-color="white"/>
<stop offset="1" stop-color="#101010"/>
</linearGradient>
<linearGradient id="paint24_linear_65_2" x1="41.7441" y1="36.7508" x2="42.0761" y2="90.7991" gradientUnits="userSpaceOnUse">
<stop stop-color="white"/>
<stop offset="1" stop-color="#101010"/>
</linearGradient>
<linearGradient id="paint25_linear_65_2" x1="162.442" y1="-28.305" x2="163.01" y2="42.35" gradientUnits="userSpaceOnUse">
<stop stop-color="white"/>
<stop offset="1" stop-color="#101010"/>
</linearGradient>
<linearGradient id="paint26_linear_65_2" x1="126.176" y1="1.28931" x2="126.249" y2="19.3058" gradientUnits="userSpaceOnUse">
<stop stop-color="white"/>
<stop offset="1" stop-color="#101010"/>
</linearGradient>
</defs>
</svg>
